<svg xmlns="http://www.w3.org/2000/svg" xmlns:xlink="http://www.w3.org/1999/xlink" viewBox="0 0 70 40"><defs><style>.cls-1{fill:url(#linear-gradient);}.cls-2{fill:url(#linear-gradient-2);}.cls-3{fill:url(#linear-gradient-3);}.cls-4{fill:url(#linear-gradient-5);}.cls-5{fill:url(#linear-gradient-6);}.cls-6{fill:url(#linear-gradient-7);}</style><linearGradient id="linear-gradient" x1="-0.09" y1="35" x2="69.93" y2="35" gradientUnits="userSpaceOnUse"><stop offset="0" stop-color="#ffde17"/><stop offset="1" stop-color="#f15a29"/></linearGradient><linearGradient id="linear-gradient-2" x1="-0.09" y1="25" x2="69.97" y2="25" xlink:href="#linear-gradient"/><linearGradient id="linear-gradient-3" x1="-0.09" y1="11.4" x2="69.93" y2="11.4" xlink:href="#linear-gradient"/><linearGradient id="linear-gradient-5" x1="-0.09" y1="15" x2="69.93" y2="15" xlink:href="#linear-gradient"/><linearGradient id="linear-gradient-6" x1="-0.09" y1="5" x2="69.93" y2="5" xlink:href="#linear-gradient"/><linearGradient id="linear-gradient-7" x1="-0.09" y1="25" x2="69.93" y2="25" xlink:href="#linear-gradient"/></defs><g id="Layer_2" data-name="Layer 2"><g id="Layer_1-2" data-name="Layer 1"><polygon class="cls-1" points="0 40 10 40 0 30 0 40"/><polygon class="cls-2" points="20 30 10 20 5 15 0 10 0 20 20 40 22.31 40 30 40 26.16 36.16 20 30"/><path class="cls-3" d="M10.06,10l10,10,2.79,2.8a14.91,14.91,0,0,0,2.08-9.74A15.28,15.28,0,0,0,9.64,0H.06l5,5Z"/><polygon class="cls-1" points="50 40 50 30 40 40 50 40"/><polygon class="cls-4" points="40 30 50 20 50 0 40 0 40 30"/><polygon class="cls-5" points="60 0 60 10 70 0 60 0"/><polygon class="cls-6" points="60 40 70 40 70 10 60 20 60 40"/></g></g></svg>