<?xml version="1.0" encoding="UTF-8" standalone="no"?>
<!DOCTYPE svg PUBLIC "-//W3C//DTD SVG 1.1//EN" "http://www.w3.org/Graphics/SVG/1.1/DTD/svg11.dtd">
<svg version="1.1" xmlns="http://www.w3.org/2000/svg" xmlns:xlink="http://www.w3.org/1999/xlink" preserveAspectRatio="xMidYMid meet" viewBox="0 0 640 640" width="640" height="640"><defs><path d="M291.66 359.04C297.01 311.62 295.4 277.4 286.84 256.36C278.29 235.33 260.64 265.45 233.9 346.74C248.52 270.45 250.3 241.21 239.25 259.04C228.97 275.61 171.7 366.66 142.09 314.85C112.48 263.04 167.23 266.06 184.71 275.61C230.7 300.75 214.64 338.66 220 337.11C225.36 335.56 238.76 221.86 237.15 218.61C235.54 215.37 223.37 231.13 206.1 264.92C165.45 344.42 124.1 360.29 82.03 312.51" id="eHlXLHiMJ"></path><path d="M548.88 323.74C553.69 318.93 564.92 325.35 541.93 342.99C518.93 360.64 500.75 350.48 486.84 332.3C472.94 314.12 455.29 373.48 463.85 347.27C472.41 321.07 469.73 323.21 454.22 332.83C438.72 342.46 426.42 313.05 436.58 316.79C446.74 320.53 439.25 355.83 426.95 354.22C418.75 353.16 417.15 344.06 422.14 326.95C434.26 311.98 435.15 314.65 424.81 334.97C414.47 355.29 400.75 353.33 383.64 329.09C380.43 342.28 384.88 350.12 397.01 352.62C409.13 355.12 409.48 342.82 398.07 315.72C392.37 344.24 379.71 354.22 360.11 345.67C330.7 332.83 399.68 192.73 378.29 266.52C356.9 340.32 350.48 363.85 325.88 346.2C301.28 328.56 320 265.45 321.6 300.75C323.21 336.04 256.36 318.93 263.32 302.89" id="a189qk3ZSu"></path></defs><g><g><g><g><use xlink:href="#eHlXLHiMJ" opacity="1" fill-opacity="0" stroke="#000000" stroke-width="1" stroke-opacity="1"></use></g></g><g><g><use xlink:href="#a189qk3ZSu" opacity="1" fill-opacity="0" stroke="#000000" stroke-width="1" stroke-opacity="1"></use></g></g></g></g></svg>