<?xml version="1.0" encoding="UTF-8" standalone="no"?>
<!DOCTYPE svg PUBLIC "-//W3C//DTD SVG 1.1//EN" "http://www.w3.org/Graphics/SVG/1.1/DTD/svg11.dtd">
<svg version="1.1" xmlns="http://www.w3.org/2000/svg" xmlns:xlink="http://www.w3.org/1999/xlink" preserveAspectRatio="xMidYMid meet" viewBox="0 0 640 640" width="640" height="640"><defs><path d="M495.53 266.47C502.4 265.44 501.54 262.35 492.96 257.21C468.4 237.19 436.21 231.82 396.4 241.09C336.69 254.99 271.1 339.73 281.91 378.34C292.72 416.95 343.44 394.95 359.92 363.55C376.39 332.15 339.18 275.24 321.28 268.72C303.38 262.21 280.98 284.74 279.01 292.43C277.04 300.12 287.57 276.77 281.91 270.08C276.25 263.38 247.17 285.59 242.27 299.54C237.38 313.48 262.55 268.21 254.14 257.21C245.73 246.21 204.69 285.31 201.6 313.11C198.52 340.91 226.31 266.47 221.17 254.12C216.02 241.76 133.66 264.41 142.41 287.58C148.24 303.02 170.34 291.2 208.71 252.12" id="iZfC8S1SX"></path></defs><g><g><g><g><use xlink:href="#iZfC8S1SX" opacity="1" fill-opacity="0" stroke="#000000" stroke-width="1" stroke-opacity="1"></use></g></g></g></g></svg>